<svg width="86" height="86" viewBox="0 0 86 86" fill="none" xmlns="http://www.w3.org/2000/svg">
<path d="M68.0833 10.75H17.9167C13.9586 10.75 10.75 13.9586 10.75 17.9167V68.0833C10.75 72.0414 13.9586 75.25 17.9167 75.25H68.0833C72.0414 75.25 75.25 72.0414 75.25 68.0833V17.9167C75.25 13.9586 72.0414 10.75 68.0833 10.75Z" stroke="white" stroke-width="5" stroke-linecap="round" stroke-linejoin="round"/>
<path d="M30.4583 35.8334C33.4269 35.8334 35.8333 33.4269 35.8333 30.4584C35.8333 27.4898 33.4269 25.0834 30.4583 25.0834C27.4898 25.0834 25.0833 27.4898 25.0833 30.4584C25.0833 33.4269 27.4898 35.8334 30.4583 35.8334Z" stroke="white" stroke-width="5" stroke-linecap="round" stroke-linejoin="round"/>
<path d="M75.25 53.75L57.3333 35.8334L17.9167 75.2501" stroke="white" stroke-width="5" stroke-linecap="round" stroke-linejoin="round"/>
</svg>
