<svg width="86" height="86" viewBox="0 0 86 86" fill="none" xmlns="http://www.w3.org/2000/svg">
<path d="M82.8333 68.0833C82.8333 69.9841 82.0782 71.8069 80.7342 73.1509C79.3902 74.4949 77.5673 75.25 75.6666 75.25H11.1666C9.26589 75.25 7.44302 74.4949 6.09901 73.1509C4.755 71.8069 3.99994 69.9841 3.99994 68.0833V28.6667C3.99994 26.7659 4.755 24.9431 6.09901 23.5991C7.44302 22.2551 9.26589 21.5 11.1666 21.5H25.4999L32.6666 10.75H54.1666L61.3333 21.5H75.6666C77.5673 21.5 79.3902 22.2551 80.7342 23.5991C82.0782 24.9431 82.8333 26.7659 82.8333 28.6667V68.0833Z" stroke="white" stroke-width="6" stroke-linecap="round" stroke-linejoin="round"/>
<path d="M43.3334 60.9167C51.2495 60.9167 57.6667 54.4994 57.6667 46.5833C57.6667 38.6673 51.2495 32.25 43.3334 32.25C35.4173 32.25 29.0001 38.6673 29.0001 46.5833C29.0001 54.4994 35.4173 60.9167 43.3334 60.9167Z" stroke="white" stroke-width="6" stroke-linecap="round" stroke-linejoin="round"/>
</svg>
