<svg width="86" height="86" viewBox="0 0 86 86" fill="none" xmlns="http://www.w3.org/2000/svg">
<path d="M28.6667 10.75V21.5C28.6667 23.4007 27.9116 25.2236 26.5676 26.5676C25.2236 27.9116 23.4007 28.6667 21.5 28.6667H10.75M75.25 28.6667H64.5C62.5993 28.6667 60.7764 27.9116 59.4324 26.5676C58.0884 25.2236 57.3333 23.4007 57.3333 21.5V10.75M57.3333 75.25V64.5C57.3333 62.5993 58.0884 60.7764 59.4324 59.4324C60.7764 58.0884 62.5993 57.3333 64.5 57.3333H75.25M10.75 57.3333H21.5C23.4007 57.3333 25.2236 58.0884 26.5676 59.4324C27.9116 60.7764 28.6667 62.5993 28.6667 64.5V75.25" stroke="white" stroke-width="6" stroke-linecap="round" stroke-linejoin="round"/>
</svg>
