<svg width="86" height="86" viewBox="0 0 86 86" fill="none" xmlns="http://www.w3.org/2000/svg">
<path d="M82.8333 68.0833C82.8333 69.9841 82.0782 71.8069 80.7342 73.1509C79.3902 74.4949 77.5673 75.25 75.6666 75.25H11.1666C9.26592 75.25 7.44305 74.4949 6.09904 73.1509C4.75503 71.8069 3.99997 69.9841 3.99997 68.0833V28.6667C3.99997 26.7659 4.75503 24.9431 6.09904 23.5991C7.44305 22.2551 9.26592 21.5 11.1666 21.5H25.5L32.6666 10.75H54.1666L61.3333 21.5H75.6666C77.5673 21.5 79.3902 22.2551 80.7342 23.5991C82.0782 24.9431 82.8333 26.7659 82.8333 28.6667V68.0833Z" stroke="white" stroke-width="6" stroke-linecap="round" stroke-linejoin="round"/>
<path d="M56.9575 48.3088L64.6792 56.0306L56.9575 63.7523" stroke="white" stroke-width="4" stroke-linecap="round" stroke-linejoin="round"/>
<path d="M29.7217 48.6914L22 40.9697L29.7217 33.248" stroke="white" stroke-width="4" stroke-linecap="round" stroke-linejoin="round"/>
<path d="M34.7402 56.0307L64.6793 56.0306" stroke="white" stroke-width="4" stroke-linecap="round" stroke-linejoin="round"/>
<path d="M51.939 40.9694L22 40.9695" stroke="white" stroke-width="4" stroke-linecap="round" stroke-linejoin="round"/>
</svg>
